<svg width="1024" height="1024" viewBox="0 0 1024 1024" fill="none" xmlns="http://www.w3.org/2000/svg">
<path fill-rule="evenodd" clip-rule="evenodd" d="M257.907 208C238.873 208 222.475 221.413 218.701 240.069L111.808 768.456C106.796 793.232 125.736 816.387 151.014 816.387H452.789C463.48 816.387 468.834 803.461 461.275 795.902L334.254 668.881C326.443 661.07 326.443 648.407 334.254 640.597L448.708 526.142C456.519 518.332 469.182 518.332 476.992 526.142L755.522 804.671C763.023 812.173 773.197 816.387 783.806 816.387H873.209C898.487 816.387 917.427 793.232 912.415 768.456L805.522 240.069C801.748 221.413 785.35 208 766.316 208H257.907Z" fill="#EE254C"/>
</svg>
