<svg width="1024" height="1024" viewBox="0 0 1024 1024" fill="none" xmlns="http://www.w3.org/2000/svg">
<path fill-rule="evenodd" clip-rule="evenodd" d="M187.52 123C163.224 123 142.293 140.152 137.475 164.009L1.03146 839.706C-5.36638 871.389 18.8097 901 51.0759 901H444.324C455.01 901 460.366 888.085 452.818 880.522L284.973 712.37C275.003 702.382 275.003 686.189 284.973 676.201L431.069 529.837C441.038 519.849 457.203 519.849 467.172 529.837L825.936 889.258C833.44 896.776 843.625 901 854.246 901H972.924C1005.19 901 1029.37 871.389 1022.97 839.706L886.525 164.009C881.707 140.152 860.777 123 836.481 123H187.52Z" fill="#EE254C"/>
</svg>
