<svg version="1" xmlns="http://www.w3.org/2000/svg" width="1365.333" height="1365.333" viewBox="0 0 1024.000000 1024.000000"><path d="M174 124.9c-10 3.2-15.4 6.5-22 13.1-9.3 9.3-13.5 18.4-16.4 35.5-.3 1.6-2.4 11.8-4.6 22.5-2.2 10.7-4.2 20.6-4.4 22-.3 1.4-1.4 7-2.6 12.5-1.2 5.5-2.3 10.9-2.5 12-.2 1.1-.8 4.7-1.5 8-3.2 15.7-3.9 19.2-4.5 22-.3 1.6-4.5 22.1-9.2 45.5-4.7 23.4-8.6 43.2-8.8 44-.2.8-2.2 10.9-4.5 22.5-2.3 11.5-4.3 21.4-4.5 22-.2.9-1.2 6.3-2.1 10.5-.1.8-2.3 11.6-4.9 24-2.5 12.4-4.8 23.6-5 25-.7 3.4-1.4 7-2 10-1.1 5.4-1.6 7.6-2 10-.2 1.4-2.2 11.3-4.5 22-2.2 10.7-4.3 20.6-4.5 22-.8 4.3-1.4 7.4-2.1 10.5-.4 1.6-.8 3.9-.9 5-.2 1.1-1.1 5.6-2 10-.9 4.4-1.8 8.8-2 9.8-.2 1-.6 2.6-.9 3.5-.3.9-.7 3.4-1 5.4-.3 2-1.5 7.8-2.6 12.9-1.2 5.1-2.2 10.4-2.4 11.8-.2 1.4-1.3 7.1-2.4 12.6-1.2 5.5-2.3 11.1-2.6 12.5-.3 1.4-1.8 9.2-3.5 17.5-1.6 8.2-3.2 16.1-3.5 17.5-.2 1.4-1 4.7-1.6 7.5-.6 2.7-1.4 6.1-1.6 7.5-.7 4.1-4.2 21.3-6.8 34-.8 4.1-1.8 9-2.1 10.9-.3 1.9-.7 3.7-.9 4-.2.3-.7 2.2-1 4.1-.3 1.9-4.1 21.3-8.5 43s-8.3 41.1-8.6 43c-.3 1.9-1 5.1-1.5 7-.5 1.9-1.2 5.1-1.5 7-.3 1.9-1.3 6.9-2.1 11-4.7 23.2 5.1 45.4 24.9 56.4 12.7 7.1-3.4 6.6 219.6 6.6 218.3 0 204.7.4 208.4-5.3 1.8-2.8 2.4-7.2 1.3-10.7-.4-1.4-39.6-41.3-86.9-88.7-94.6-94.6-91.2-90.8-91-102.5.1-3.7.9-7.4 2.3-10.3 3.3-6.8 152.5-155.9 158.9-158.8 6.4-2.9 15.1-2.8 21.1.2 3.3 1.7 54.8 52.7 187.5 185.6C839.8 903.2 833.1 896.7 845 899.9c5.1 1.3 135.1 1.1 140.5-.2 7.1-1.9 17.3-7.8 22.8-13.3 14.3-14.1 18.2-29.5 13.3-53.4-1.4-6.9-2.7-13.6-3-15-.2-1.4-2.8-14-5.6-28-2.9-14-5.4-26.4-5.6-27.5-.2-1.1-1.7-8.5-3.3-16.5-1.7-8-3.2-15.6-3.5-17-.2-1.4-1.2-5.8-2-9.7-.9-4-1.8-8.7-2.1-10.5-.6-3.2-8.4-42-16.7-82.3-2.2-11-4.1-20.7-4.3-21.5-.1-.8-.7-4-1.3-7-1.7-8-2.3-11.3-2.6-13-.2-.8-.8-4-1.4-7-1.7-7.5-2-9.3-3.8-18.5-.9-4.4-1.8-8.9-2-10-.2-1.1-.6-2.9-.8-4-2.2-10.7-4.9-23.5-5.2-25.5-.3-1.4-1-5-1.6-8-.7-3-1.3-6-1.3-6.5-.1-.6-.7-3.5-1.3-6.5-1.6-7.3-2.1-9.9-2.8-13.9-.3-1.8-.8-4.3-1-5.5-.3-1.1-.9-4.1-1.4-6.6-.6-2.5-1.9-9-3-14.5-2.4-12.5-2.7-14-4-19.5-.5-2.5-1.2-5.6-1.4-7-.3-1.4-1-5-1.6-8-.6-3-1.3-6.6-1.6-8-.2-1.4-.9-4.5-1.4-7-.5-2.5-1.2-5.6-1.4-7-.3-1.4-1-5-1.6-8-.6-3-1.3-6.5-1.6-7.7-.2-1.2-2.4-12-4.9-24-2.4-12-4.6-23.1-4.9-24.7-.5-2.8-2-10.1-3.2-15.6-.6-3.2-.7-3.6-5.5-27-4-19.6-4.4-22-5.4-27.5-.3-1.7-1.9-9.3-3.5-17-2.9-13.9-8.5-41.7-9.4-46.5-.2-1.4-.7-3.6-1-5-.3-1.4-.8-3.6-1-5-.2-1.4-1.2-6.1-2.1-10.5-.9-4.4-1.9-9.1-2.1-10.5-.3-1.4-.7-3.2-.9-4-.3-.8-.7-3.3-1.1-5.5-1.9-12.4-13.9-28.2-26.2-34.4-12.8-6.4 14.9-6-348.7-6-316.2 0-332.3.1-337.5 1.8z"/></svg>