<svg width="134" height="36" fill="none" xmlns="http://www.w3.org/2000/svg"><g clip-path="url(#clip0)"><rect width="134" height="36" rx="6" fill="#EE254C"/><path d="M20.54 17.91c0-3.332-2.068-5.231-4.768-5.231-2.714 0-4.767 1.9-4.767 5.23 0 3.316 2.053 5.23 4.767 5.23 2.7 0 4.768-1.899 4.768-5.23zm-2.182 0c0 2.157-1.024 3.325-2.586 3.325-1.566 0-2.585-1.168-2.585-3.326 0-2.158 1.02-3.326 2.585-3.326 1.562 0 2.586 1.168 2.586 3.326zM21.855 23h2.152v-3.301h1.81c2.342 0 3.704-1.397 3.704-3.43 0-2.024-1.337-3.45-3.65-3.45h-4.016V23zm2.152-5.026v-3.396h1.452c1.243 0 1.845.676 1.845 1.69 0 1.01-.602 1.706-1.835 1.706h-1.462zM30.64 23h6.881v-1.775h-4.728v-2.431h4.355v-1.775h-4.355v-2.426H37.5v-1.775h-6.86V23zm16.809-10.182h-2.143v6.404h-.09l-4.394-6.404h-1.89V23h2.153v-6.408h.075L45.589 23h1.859V12.818zM55.516 23c3.102 0 4.982-1.919 4.982-5.1 0-3.173-1.88-5.082-4.952-5.082h-3.64V23h3.61zm-1.457-1.845v-6.492h1.373c1.909 0 2.918.974 2.918 3.236 0 2.272-1.01 3.256-2.923 3.256h-1.368zM61.812 23h6.88v-1.775h-4.727v-2.431h4.355v-1.775h-4.355v-2.426h4.708v-1.775h-6.86V23zm8.293-10.182V23h2.088v-6.652h.084l2.635 6.602h1.422l2.635-6.577h.084V23h2.088V12.818h-2.654l-2.804 6.841h-.12l-2.804-6.84h-2.654zm21.887 5.091c0-3.33-2.069-5.23-4.768-5.23-2.715 0-4.768 1.9-4.768 5.23 0 3.316 2.053 5.23 4.768 5.23 2.7 0 4.768-1.899 4.768-5.23zm-2.183 0c0 2.158-1.024 3.326-2.585 3.326-1.566 0-2.585-1.168-2.585-3.326 0-2.158 1.019-3.326 2.585-3.326 1.56 0 2.585 1.168 2.585 3.326z" fill="#fff"/><path d="M118.857 12a.858.858 0 000 1.714h2.217l-5.394 5.394a.855.855 0 00-.011 1.223.857.857 0 001.223-.01l5.394-5.395v2.217a.856.856 0 101.714 0v-4.286a.856.856 0 00-.857-.857h-4.286z" fill="#FFF1F2"/><path d="M113.714 13.714A1.716 1.716 0 00112 15.43v6.857A1.716 1.716 0 00113.714 24h6.857a1.717 1.717 0 001.715-1.714v-2.572a.86.86 0 00-.857-.857.858.858 0 00-.858.857v2.572h-6.857v-6.857h2.572a.858.858 0 000-1.715h-2.572z" fill="#FFF1F2"/><path d="M102-1h1v36h-1V-1z" fill="#BE123C"/></g><defs><clipPath id="clip0"><path fill="#fff" d="M0 0h133.92v36H0z"/></clipPath></defs></svg>